<svg width="71" height="62" viewBox="0 0 71 62" fill="none" xmlns="http://www.w3.org/2000/svg">
<path d="M35.5 0L0 16.6923L9.46667 20.9846V29.0923C6.62667 30.0462 4.73333 32.9077 4.73333 35.7692C4.73333 38.6308 6.62667 41.4923 9.46667 42.4462V42.9231L5.20667 52.9385C3.78667 57.2308 4.73333 62 11.8333 62C18.9333 62 19.88 57.2308 18.46 52.9385L14.2 42.9231C17.04 41.4923 18.9333 39.1077 18.9333 35.7692C18.9333 32.4308 17.04 30.0462 14.2 29.0923V23.3692L35.5 33.3846L71 16.6923L35.5 0ZM56.3267 31L35.0267 40.5385L23.6667 35.2923V35.7692C23.6667 39.1077 22.2467 41.9692 19.88 44.3538L22.72 51.0308V51.5077C23.1933 53.4154 23.6667 55.3231 23.1933 57.2308C26.5067 58.6615 30.2933 59.6154 35.0267 59.6154C50.6467 59.6154 56.3267 50.0769 56.3267 45.3077V31Z" fill="#ECDBBA"/>
</svg>
